{
  "accessors": [
    {
      "bufferView": 2,
      "componentType": 5126,
      "count": 4359,
      "max": [
        22.01991081237793,
        1.4056955575942993,
        5.122936725616455
      ],
      "min": [
        -20.536270141601563,
        0.6828373074531555,
        -0.10530508309602737
      ],
      "type": "VEC3"
    },
    {
      "bufferView": 2,
      "byteOffset": 52308,
      "componentType": 5126,
      "count": 4359,
      "max": [
        0.9963706135749817,
        0.7883399128913879,
        0.9999995827674866
      ],
      "min": [
        -0.9972014427185059,
        -0.9999999403953552,
        -0.9267562031745911
      ],
      "type": "VEC3"
    },
    {
      "bufferView": 1,
      "componentType": 5126,
      "count": 4359,
      "max": [
        0.9996466040611267,
        0.7604979276657104
      ],
      "min": [
        0.000244140625,
        0.000270028249360621
      ],
      "type": "VEC2"
    },
    {
      "bufferView": 1,
      "byteOffset": 34872,
      "componentType": 5126,
      "count": 4359,
      "max": [
        0.9996466040611267,
        0.7604979276657104
      ],
      "min": [
        0.000244140625,
        0.000270028249360621
      ],
      "type": "VEC2"
    },
    {
      "bufferView": 0,
      "componentType": 5125,
      "count": 20325,
      "type": "SCALAR"
    },
    {
      "bufferView": 2,
      "byteOffset": 104616,
      "componentType": 5126,
      "count": 3031,
      "max": [
        15.816540718078613,
        1.2274889945983887,
        5.066488265991211
      ],
      "min": [
        -16.009780883789063,
        0.8101253509521484,
        -0.035371631383895874
      ],
      "type": "VEC3"
    },
    {
      "bufferView": 2,
      "byteOffset": 140988,
      "componentType": 5126,
      "count": 3031,
      "max": [
        0.6750542521476746,
        0.18916663527488708,
        0.9921076893806458
      ],
      "min": [
        -0.7071552276611328,
        -0.9999993443489075,
        -0.5189563035964966
      ],
      "type": "VEC3"
    },
    {
      "bufferView": 1,
      "byteOffset": 69744,
      "componentType": 5126,
      "count": 3031,
      "max": [
        1.9993480443954468,
        0.9694823026657104
      ],
      "min": [
        1.000244140625,
        0.0004719687858596444
      ],
      "type": "VEC2"
    },
    {
      "bufferView": 1,
      "byteOffset": 93992,
      "componentType": 5126,
      "count": 3031,
      "max": [
        1.9993480443954468,
        0.9694823026657104
      ],
      "min": [
        1.000244140625,
        0.0004719687858596444
      ],
      "type": "VEC2"
    },
    {
      "bufferView": 0,
      "byteOffset": 81300,
      "componentType": 5125,
      "count": 15651,
      "type": "SCALAR"
    }
  ],
  "asset": {
    "extras": {
      "author": "Оrрндп ЯТG (https://sketchfab.com/orphanrtg)",
      "license": "CC-BY-4.0 (http://creativecommons.org/licenses/by/4.0/)",
      "source": "https://sketchfab.com/3d-models/dirty-leaking-concrete-wall-893893fc88104dd8a3bd66333411acd2",
      "title": "Dirty leaking concrete wall"
    },
    "generator": "Sketchfab-16.14.0",
    "version": "2.0"
  },
  "bufferViews": [
    {
      "buffer": 0,
      "byteLength": 143904,
      "name": "floatBufferViews",
      "target": 34963
    },
    {
      "buffer": 0,
      "byteLength": 118240,
      "byteOffset": 143904,
      "byteStride": 8,
      "name": "floatBufferViews",
      "target": 34962
    },
    {
      "buffer": 0,
      "byteLength": 177360,
      "byteOffset": 262144,
      "byteStride": 12,
      "name": "floatBufferViews",
      "target": 34962
    }
  ],
  "buffers": [
    {
      "byteLength": 439504,
      "uri": "ene.bin"
    }
  ],
  "extensionsUsed": [
    "KHR_materials_unlit"
  ],
  "images": [
    {
      "uri": "textures/btn_krnl_u1_v1_baseColor.jpeg"
    },
    {
      "uri": "textures/btn_krnl_u2_v1_baseColor.jpeg"
    }
  ],
  "materials": [
    {
      "doubleSided": true,
      "extensions": {
        "KHR_materials_unlit": {}
      },
      "name": "btn_krnl_u1_v1",
      "pbrMetallicRoughness": {
        "baseColorTexture": {
          "index": 0
        },
        "metallicFactor": 0.0
      }
    },
    {
      "doubleSided": true,
      "extensions": {
        "KHR_materials_unlit": {}
      },
      "name": "btn_krnl_u2_v1",
      "pbrMetallicRoughness": {
        "baseColorTexture": {
          "index": 1
        },
        "metallicFactor": 0.0
      }
    }
  ],
  "meshes": [
    {
      "name": "btn_krnl_btn_krnl_u1_v1_0",
      "primitives": [
        {
          "attributes": {
            "NORMAL": 1,
            "POSITION": 0,
            "TEXCOORD_0": 2,
            "TEXCOORD_1": 3
          },
          "indices": 4,
          "material": 0,
          "mode": 4
        }
      ]
    },
    {
      "name": "btn_krnl_btn_krnl_u2_v1_0",
      "primitives": [
        {
          "attributes": {
            "NORMAL": 6,
            "POSITION": 5,
            "TEXCOORD_0": 7,
            "TEXCOORD_1": 8
          },
          "indices": 9,
          "material": 1,
          "mode": 4
        }
      ]
    }
  ],
  "nodes": [
    {
      "children": [
        1
      ],
      "matrix": [
        0.19272230565547943,
        0.0,
        0.0,
        0.0,
        0.0,
        4.279294821951206e-17,
        -0.19272230565547943,
        0.0,
        0.0,
        0.19272230565547943,
        4.279294821951206e-17,
        0.0,
        0.0,
        0.0,
        0.0,
        1.0
      ],
      "name": "Sketchfab_model"
    },
    {
      "children": [
        2
      ],
      "matrix": [
        1.0,
        0.0,
        0.0,
        0.0,
        0.0,
        0.0,
        1.0,
        0.0,
        0.0,
        -1.0,
        0.0,
        0.0,
        0.0,
        0.0,
        0.0,
        1.0
      ],
      "name": "8dc65e4c628e4d3eaef026de67f9f0c6.fbx"
    },
    {
      "children": [
        3
      ],
      "name": "RootNode"
    },
    {
      "children": [
        4,
        5
      ],
      "matrix": [
        1.0,
        0.0,
        0.0,
        0.0,
        0.0,
        2.220446049250313e-16,
        -1.0,
        0.0,
        0.0,
        1.0,
        2.220446049250313e-16,
        0.0,
        0.0,
        0.0,
        0.0,
        1.0
      ],
      "name": "btn_krnl"
    },
    {
      "mesh": 0,
      "name": "btn_krnl_btn_krnl_u1_v1_0"
    },
    {
      "mesh": 1,
      "name": "btn_krnl_btn_krnl_u2_v1_0"
    }
  ],
  "samplers": [
    {
      "magFilter": 9729,
      "minFilter": 9987,
      "wrapS": 10497,
      "wrapT": 10497
    }
  ],
  "scene": 0,
  "scenes": [
    {
      "name": "Sketchfab_Scene",
      "nodes": [
        0
      ]
    }
  ],
  "textures": [
    {
      "sampler": 0,
      "source": 0
    },
    {
      "sampler": 0,
      "source": 1
    }
  ]
}
